<?xml version="1.0" standalone="no"?>
<!DOCTYPE svg PUBLIC "-//W3C//DTD SVG 20010904//EN"
 "http://www.w3.org/TR/2001/REC-SVG-20010904/DTD/svg10.dtd">
<svg version="1.0" xmlns="http://www.w3.org/2000/svg"
 width="800.000000pt" height="800.000000pt" viewBox="0 0 800.000000 800.000000"
 preserveAspectRatio="xMidYMid meet">
<metadata>
Created by potrace 1.11, written by Peter Selinger 2001-2013
</metadata>
<g transform="translate(0.000000,800.000000) scale(0.100000,-0.100000)"
fill="#000000" stroke="none">
<path d="M3990 7970 c0 -8 -10 -20 -22 -25 -19 -8 -23 -19 -25 -65 -27 -627
-224 -1321 -514 -1813 -56 -94 -153 -247 -174 -275 -2 -2 -62 10 -134 27 -344
79 -705 214 -1001 375 -269 146 -585 373 -776 558 -66 63 -88 78 -112 78 -41
0 -62 -23 -62 -67 0 -31 10 -47 63 -103 397 -421 713 -980 881 -1555 27 -94
86 -336 86 -354 0 -24 -324 -221 -493 -301 -246 -116 -575 -230 -821 -285
-284 -63 -583 -105 -754 -105 -92 0 -132 -18 -132 -60 0 -42 40 -60 132 -60
171 0 470 -42 754 -105 246 -55 575 -169 821 -285 188 -89 493 -278 493 -306
0 -8 -14 -72 -30 -142 -163 -684 -477 -1277 -943 -1778 -56 -61 -67 -79 -67
-108 0 -25 6 -39 22 -50 43 -30 65 -20 166 77 184 175 519 416 772 553 295
160 655 295 997 374 71 17 131 30 135 30 21 0 224 -336 298 -493 116 -246 230
-574 286 -822 60 -269 104 -583 104 -741 0 -33 5 -65 12 -72 16 -16 83 -15 95
0 6 7 13 71 17 143 28 561 232 1252 507 1718 115 194 168 269 187 263 9 -2 44
-10 77 -16 112 -22 309 -78 475 -135 148 -51 213 -78 425 -174 262 -119 660
-394 926 -639 56 -51 74 -62 103 -62 25 0 39 6 50 22 30 42 20 65 -62 151
-247 260 -517 665 -669 1002 -126 279 -237 627 -285 890 -3 15 13 32 72 71
278 188 558 321 934 443 316 104 802 191 1064 191 92 0 132 18 132 60 0 42
-40 60 -132 60 -262 0 -748 87 -1064 191 -299 97 -528 197 -737 320 -176 104
-267 167 -267 186 0 69 103 434 184 649 169 450 458 915 773 1246 87 91 97
114 67 156 -11 16 -25 22 -50 22 -29 0 -47 -11 -108 -67 -260 -242 -670 -525
-931 -644 -214 -97 -278 -123 -437 -177 -173 -60 -343 -107 -483 -136 -38 -8
-70 -14 -71 -13 0 1 -23 36 -51 77 -191 287 -320 559 -442 934 -104 317 -179
733 -194 1076 -2 46 -6 56 -26 66 -13 7 -28 18 -32 26 -7 10 -9 10 -9 -2z"/>
</g>
</svg>
